<svg xmlns="http://www.w3.org/2000/svg" xmlns:xlink="http://www.w3.org/1999/xlink" width="31.645" height="31.644" viewBox="0 0 31.645 31.644">
  <defs>
    <clipPath id="clip-path">
      <path id="Path_2936" data-name="Path 2936" d="M487.56,419.434a15.822,15.822,0,1,0,15.823,15.822,15.823,15.823,0,0,0-15.823-15.822" transform="translate(-471.738 -419.434)" fill="#bd4500"/>
    </clipPath>
  </defs>
  <g id="Group_911" data-name="Group 911" transform="translate(-0.035)">
    <g id="Group_10173" data-name="Group 10173" transform="translate(0.035)" clip-path="url(#clip-path)">
      <path id="Path_2935" data-name="Path 2935" d="M471.738,419.434h31.645v31.644H471.738Zm0,0" transform="translate(-471.738 -419.434)" fill="#bd4500"/>
    </g>
    <g id="Group_129" data-name="Group 129" transform="translate(-948.772 -339.282)">
      <path id="Path_237" data-name="Path 237" d="M968.774,355.115h-2.7V364.8h-4.034v-9.686H960.13V351.7h1.906v-2.217a4.8,4.8,0,0,1,.31-1.751,3.4,3.4,0,0,1,1.219-1.618,4.257,4.257,0,0,1,2.527-.709l2.992.022v3.325h-2.172a.859.859,0,0,0-.554.177.933.933,0,0,0-.288.754V351.7h3.059Z" transform="translate(0)" fill="#fff"/>
    </g>
  </g>
</svg>
