<svg id="Group_912" data-name="Group 912" xmlns="http://www.w3.org/2000/svg" xmlns:xlink="http://www.w3.org/1999/xlink" width="31.645" height="31.644" viewBox="0 0 31.645 31.644">
  <defs>
    <clipPath id="clip-path">
      <path id="Path_500" data-name="Path 500" d="M471.738,419.434h31.645v31.644H471.738Zm0,0" transform="translate(-471.738 -419.434)" fill="#bd4500"/>
    </clipPath>
    <clipPath id="clip-path-2">
      <path id="Path_499" data-name="Path 499" d="M487.56,419.434a15.822,15.822,0,1,0,15.823,15.822,15.823,15.823,0,0,0-15.823-15.822" transform="translate(-471.738 -419.434)" fill="#bd4500"/>
    </clipPath>
    <clipPath id="clip-path-3">
      <path id="Path_502" data-name="Path 502" d="M490.516,438.211h17.405v17.405H490.516Zm0,0" transform="translate(-490.516 -438.211)"/>
    </clipPath>
  </defs>
  <g id="Group_896" data-name="Group 896" clip-path="url(#clip-path)">
    <g id="Group_895" data-name="Group 895" transform="translate(0 0)" clip-path="url(#clip-path-2)">
      <path id="Path_498" data-name="Path 498" d="M471.738,419.434h31.645v31.644H471.738Zm0,0" transform="translate(-471.738 -419.434)" fill="#bd4500"/>
    </g>
  </g>
  <g id="Group_897" data-name="Group 897" transform="translate(7.153 7.153)" clip-path="url(#clip-path-3)">
    <path id="Path_501" data-name="Path 501" d="M499.215,439.782c2.321,0,2.6.009,3.516.051a4.72,4.72,0,0,1,1.616.3,2.668,2.668,0,0,1,1,.653,2.734,2.734,0,0,1,.652,1,4.909,4.909,0,0,1,.3,1.617c.043.918.051,1.193.051,3.516s-.007,2.6-.051,3.515a4.722,4.722,0,0,1-.3,1.617,2.683,2.683,0,0,1-.652,1,2.739,2.739,0,0,1-1,.652,4.9,4.9,0,0,1-1.616.3c-.92.042-1.195.051-3.516.051s-2.6-.009-3.516-.051a4.733,4.733,0,0,1-1.617-.3,2.679,2.679,0,0,1-1-.652,2.743,2.743,0,0,1-.653-1,4.908,4.908,0,0,1-.3-1.617c-.042-.918-.049-1.193-.049-3.515s.008-2.6.049-3.516a4.779,4.779,0,0,1,.3-1.617,2.68,2.68,0,0,1,.653-1,2.722,2.722,0,0,1,1-.653,4.91,4.91,0,0,1,1.617-.3c.918-.042,1.193-.051,3.516-.051m0-1.567c-2.364,0-2.659.012-3.589.053a6.394,6.394,0,0,0-2.113.4,4.215,4.215,0,0,0-1.54,1,4.285,4.285,0,0,0-1,1.54,6.436,6.436,0,0,0-.4,2.113c-.042.927-.053,1.224-.053,3.585s.012,2.657.053,3.589a6.43,6.43,0,0,0,.4,2.112,4.438,4.438,0,0,0,2.545,2.544,6.418,6.418,0,0,0,2.113.4c.926.043,1.223.054,3.588.054s2.659-.011,3.589-.054a6.427,6.427,0,0,0,2.113-.4,4.442,4.442,0,0,0,2.543-2.544,6.388,6.388,0,0,0,.4-2.112c.042-.927.054-1.225.054-3.589s-.012-2.658-.054-3.589a6.385,6.385,0,0,0-.4-2.112,4.444,4.444,0,0,0-2.543-2.545,6.473,6.473,0,0,0-2.113-.4c-.93-.037-1.227-.049-3.592-.049" transform="translate(-490.516 -438.213)" fill="#fff"/>
  </g>
  <path id="Path_503" data-name="Path 503" d="M506.095,449.328a4.468,4.468,0,1,0,4.473,4.466,4.464,4.464,0,0,0-4.473-4.466m0,7.367a2.9,2.9,0,1,1,2.9-2.9,2.9,2.9,0,0,1-2.9,2.9" transform="translate(-490.242 -437.94)" fill="#fff"/>
  <path id="Path_504" data-name="Path 504" d="M524.89,447.17a1.044,1.044,0,1,1-1.044-1.045,1.046,1.046,0,0,1,1.044,1.045" transform="translate(-503.349 -435.957)" fill="#fff"/>
</svg>
