<svg xmlns="http://www.w3.org/2000/svg" xmlns:xlink="http://www.w3.org/1999/xlink" width="31.645" height="31.644" viewBox="0 0 31.645 31.644">
  <defs>
    <clipPath id="clip-path">
      <path id="Path_2939" data-name="Path 2939" d="M471.738,419.434h31.645v31.644H471.738Zm0,0" transform="translate(-471.738 -419.434)" fill="#bd4500"/>
    </clipPath>
    <clipPath id="clip-path-2">
      <path id="Path_2938" data-name="Path 2938" d="M487.56,419.434a15.822,15.822,0,1,0,15.823,15.822,15.823,15.823,0,0,0-15.823-15.822" transform="translate(-471.738 -419.434)" fill="#bd4500"/>
    </clipPath>
  </defs>
  <g id="Group_914" data-name="Group 914" transform="translate(0.034)">
    <g id="Group_10175" data-name="Group 10175" transform="translate(-0.034)" clip-path="url(#clip-path)">
      <g id="Group_10174" data-name="Group 10174" transform="translate(0 0)" clip-path="url(#clip-path-2)">
        <path id="Path_2937" data-name="Path 2937" d="M471.738,419.434h31.645v31.644H471.738Zm0,0" transform="translate(-471.738 -419.434)" fill="#bd4500"/>
      </g>
    </g>
    <g id="Group_195" data-name="Group 195" transform="translate(-943.938 -1131.923)">
      <path id="Path_303" data-name="Path 303" d="M966.476,1144.3v.446a10.082,10.082,0,0,1-.64,3.491,10.408,10.408,0,0,1-1.9,3.181,9.431,9.431,0,0,1-3.1,2.328,10.124,10.124,0,0,1-4.248.892,9.935,9.935,0,0,1-2.832-.407,9.632,9.632,0,0,1-2.522-1.145q.407.039.834.039a6.924,6.924,0,0,0,2.308-.388,7.236,7.236,0,0,0,2.017-1.086,3.484,3.484,0,0,1-2.017-.708,3.36,3.36,0,0,1-1.222-1.717,3.46,3.46,0,0,0,.64.058,3.594,3.594,0,0,0,.912-.116,3.365,3.365,0,0,1-1.416-.65,3.457,3.457,0,0,1-1-1.222,3.631,3.631,0,0,1-.378-1.542v-.058a3.265,3.265,0,0,0,1.591.446,3.508,3.508,0,0,1-1.135-1.251,3.408,3.408,0,0,1-.417-1.659,3.464,3.464,0,0,1,.466-1.746,9.947,9.947,0,0,0,7.177,3.646,4.033,4.033,0,0,1-.078-.8,3.393,3.393,0,0,1,.466-1.746,3.514,3.514,0,0,1,1.271-1.271,3.357,3.357,0,0,1,1.736-.475,3.454,3.454,0,0,1,2.541,1.106,6.775,6.775,0,0,0,2.211-.854,3.37,3.37,0,0,1-.592,1.115,3.581,3.581,0,0,1-.941.824,7.078,7.078,0,0,0,2.017-.562A7.29,7.29,0,0,1,966.476,1144.3Z" transform="translate(0)" fill="#fff"/>
    </g>
  </g>
</svg>
